<svg xmlns="http://www.w3.org/2000/svg" viewBox="0 0 862 284"><path fill="#43a0de" stroke="#43a0de" d="M0 142v142h861V0H0v142M102 33.666c-.825.324-2.4 1.38-3.5 2.348s-4.581 2.496-7.737 3.397c-31.881 9.099-59.66 43.605-59.748 74.217-.01 3.537-.528 5.553-1.67 6.5-3.536 2.932-5.669 11.936-3.19 13.467.706.437.883.275.455-.417-1.03-1.666 1.198-8.986 3.407-11.195 1.315-1.315 2.219-4.343 2.895-9.697 4.151-32.864 26.655-60.283 57.661-70.254 4.624-1.487 9.359-3.565 10.521-4.618 2.394-2.167 5.112-2.225 24.204-.52 19.917 1.779 35.494 6.335 49.691 14.534l7.511 4.337 13.162.581c49.962 2.203 70.485 22.028 43.838 42.348-5.614 4.281-23.18 13.604-30.323 16.094-2.597.906-4.529 3.212-2.69 3.212 1.42 0 23.88-11.173 28.85-14.353 25.806-16.507 22.084-36.062-8.498-44.652-9.787-2.749-25.479-4.954-35.418-4.977-7.731-.017-8.421-.213-16-4.537-15.319-8.74-29.054-12.755-49.921-14.592-19.01-1.673-21.96-1.827-23.5-1.223m16.987 12.651C97.437 51.111 88 77.403 102.076 93.434c3.682 4.193 3.186 4.399 17.813-7.376a6633.231 6633.231 0 0 1 16-12.838c7.254-5.792 22.142-13.76 27.64-14.791 5.418-1.017 4.938-1.808-3.233-5.322-14.855-6.388-31.107-9.059-41.309-6.79M71.5 60.197c-12.655 9.002-23.924 25.622-27.952 41.229-1.805 6.989-1.737 7.121 2.885 5.596 3.045-1.005 3.567-1.62 3.567-4.205 0-12.061 9.145-29.826 20.873-40.546 5.061-4.627 5.293-5.392.627-2.074m33.25 46.883c-1.013.59-1.75 2.209-1.75 3.845 0 5.484-1.298 9.182-4.339 12.361-1.691 1.768-2.991 3.524-2.889 3.902.103.379.285 1.98.406 3.559l.218 2.871 16.294-.059 16.293-.059 1.87-3.5c2.204-4.128 6.692-5.342 8.848-2.395 1.829 2.502 1.614 5.183-.451 5.61-.963.199 2.612.373 7.943.386 5.331.013 9.463-.349 9.181-.805-.282-.456-1.001-.527-1.598-.158-.653.404-.797.205-.361-.5.398-.644 1.087-.946 1.532-.671.445.276 1.09-.903 1.433-2.619 1.141-5.701 4.399-9.711 8.868-10.915 7.472-2.012 17.403.82 22.673 6.466 3.231 3.462 2.019 4.303-3.703 2.569-5.453-1.652-15.685-1.933-17.057-.468-.515.55-1.235 2.125-1.6 3.5-.643 2.418-.615 2.435.853.5 3.134-4.129 3.836-4.607 6.328-4.307 1.406.169 3.052 1.197 3.657 2.284.606 1.087 1.776 2.533 2.601 3.212 1.273 1.048 1.163 1.174-.729.834-1.226-.22-2.438-.062-2.694.352-.256.414 3.289.74 7.877.726l8.342-.027-.408-3.537c-.225-1.945-1.313-6.559-2.417-10.253-2.215-7.408-1.498-6.923-14.471-9.806-14.759-3.28-66.459-5.397-70.75-2.898M45 112.414c-5.332 1.91-5.596 5.759-.307 4.48a451.073 451.073 0 0 1 6.557-1.532c3.14-.699 3.558-1.844 1-2.746-.962-.34-2.2-.806-2.75-1.036-.55-.231-2.575.145-4.5.834m76.5 1.467c-9.926 2.554-9.55 5.118.75 5.125 11.2.007 15.405 1.295 17.87 5.472 3.116 5.283 7.298 5.687 8.519.825 2.059-8.204-13.766-14.864-27.139-11.422m-22.897 17.952c-.283.459.12.834.897.834s1.18-.375.897-.834c-.283-.458-.687-.833-.897-.833-.21 0-.614.375-.897.833m8 0c-.283.459.12.834.897.834s1.18-.375.897-.834c-.283-.458-.687-.833-.897-.833-.21 0-.614.375-.897.833m8 0c-.283.459.12.834.897.834s1.18-.375.897-.834c-.283-.458-.687-.833-.897-.833-.21 0-.614.375-.897.833m8 0c-.283.459.12.834.897.834s1.18-.375.897-.834c-.283-.458-.687-.833-.897-.833-.21 0-.614.375-.897.833m24 0c-.283.459.12.834.897.834s1.18-.375.897-.834c-.283-.458-.687-.833-.897-.833-.21 0-.614.375-.897.833m40 0c-.283.459.12.834.897.834s1.18-.375.897-.834c-.283-.458-.687-.833-.897-.833-.21 0-.614.375-.897.833M234 184.678c-2.468 1.023-2.889 2.459-2.277 7.767.715 6.204.525 6.08 9.082 5.943 11.276-.18 17.145-6.504 11.107-11.968-2.139-1.935-14.536-3.141-17.912-1.742m44.409.087c-1.226.826-4.409 9.687-4.409 12.274 0 3.269 4.789 1.131 6.054-2.703 1.414-4.284 4.002-4.124 5.278.327 1.118 3.897 5.672 5.464 5.662 1.948-.009-3.745-2.107-10.076-3.765-11.361-1.759-1.364-7.08-1.657-8.82-.485m36.948.227c-2.537 1.024-5.357 4.771-5.357 7.12 0 3.982 3.205 5.933 10.169 6.189 7.336.27 7.926-.593 1.685-2.463-7.975-2.389-5.26-7.488 3.396-6.378 4.326.555 4.75.425 4.75-1.45 0-3.469-8.953-5.315-14.643-3.018m32.79.758c-1.09 2.067-.284 12.209.98 12.341.48.05 3.798.091 7.373.091 8.438 0 8.5-.009 8.5-1.182 0-.55-2.504-1-5.563-1h-5.564l.314-3.25c.311-3.229.351-3.252 6.289-3.557 5.975-.306 7.792-1.332 6.824-3.852-.856-2.233-17.952-1.868-19.153.409m55.434-.88c-1.645 2.661-1.677 10.891-.049 12.519 2.14 2.14 3.753 1.639 4.468-1.389.822-3.484 2.628-3.506 3.834-.045 1.035 2.966 2.524 3.893 3.561 2.215.698-1.13-1.953-10.933-3.442-12.726-1.298-1.565-7.497-1.99-8.372-.574m19.697.38c-1.557 2.011-3.574 10.537-2.905 12.279.769 2.004 2.468 1.018 3.664-2.126 1.176-3.095 2.963-3.101 2.963-.01 0 2.607 2.058 3.906 4.626 2.92 1.592-.611 1.457-10.752-.179-13.398-.841-1.362-7.054-1.107-8.169.335m34.49 0c-1.332 1.031-4.768 10.274-4.768 12.826 0 2.736 5.498.058 6.829-3.326.811-2.062 2.01-3.75 2.664-3.75.655 0 1.696 1.688 2.315 3.75 1.238 4.129 6.192 5.972 6.192 2.303 0-3.053-2.855-11.345-4.2-12.198-1.964-1.246-7.209-1.016-9.032.395m34.982-.611c-2.176.631-2.626 12.899-.5 13.615 3.097 1.042 4.75-.472 4.75-4.352 0-3.291.372-3.957 2.507-4.493 4.93-1.238 8.84 3.206 6.564 7.459-.965 1.802 3.248 2.289 5.855.678 2.159-1.334 1.222-8.058-1.475-10.592-2.54-2.387-12.817-3.731-17.701-2.315m37.25 6.298c0 7.871-.728 7.272 8.846 7.278 7.607.004 17.251-8.975 13.581-12.646-2.5-2.499-3.631-1.928-8.773 4.435-5.982 7.401-6.48 7.419-6.854.246-.297-5.685-.337-5.754-3.55-6.063l-3.25-.314v7.064m39.996-4.426c-1.276 3.355-.128 11.462 1.64 11.58 7.788.519 14.801.098 15.137-.909.272-.816-1.354-1.182-5.253-1.182h-5.647l.314-3.25c.313-3.25.313-3.25 6.563-3.548 5.887-.28 6.25-.44 6.25-2.75 0-3.882-17.526-3.828-19.004.059m33.34-.944c-.831 2.165.55 3.234 4.664 3.612 3.346.307 3.522.519 4 4.821.275 2.475.837 4.387 1.25 4.25.413-.137 1.65-.25 2.75-.25 1.658 0 2-.667 2-3.893 0-4.222 1.054-5.107 6.082-5.107 2.446 0 2.918-.404 2.918-2.5V184h-11.531c-9.548 0-11.635.27-12.133 1.567m63.113-.016c-4.617 2.279-8.32 10.245-5.891 12.674 1.274 1.273 4.362-.617 5.501-3.367 1.721-4.155 6.127-6.207 11.573-5.391 3.855.579 4.368.432 4.368-1.245 0-3.936-9.635-5.59-15.551-2.671m38.934-.786c-1.01.664-4.383 10.669-4.383 13 0 2.374 4.827-.18 6.341-3.354 2.046-4.29 3.259-4.303 5.034-.057 1.268 3.036 5.055 5.433 6.006 3.802.573-.983-2.267-11.313-3.528-12.834-1.168-1.407-7.601-1.785-9.47-.557m35.367-.076c-2.177.569-2.629 12.848-.5 13.565 3.082 1.037 4.75-.474 4.75-4.303 0-4.157 2.095-5.69 6.057-4.433 2.256.716 4.194 4.665 3.358 6.842-.661 1.722 2.7 2.715 4.943 1.46 1.884-1.055 2.189-5.93.562-8.97-2.052-3.833-12.088-6.011-19.17-4.161m-502.083 4.978c-.367.366-.667 1.967-.667 3.557 0 2.773.17 2.878 4.148 2.583 5.164-.382 7.422-3.129 4.411-5.366-2.004-1.487-6.717-1.95-7.892-.774" fill-rule="evenodd"/><path fill="#2ec4dd" stroke="#2ec4dd" d="M0 142v142h861V0H0v142M103.021 33.074c-1.364.567-3.164 1.64-4 2.384-.837.744-5.121 2.549-9.521 4.01-32.016 10.633-54.303 37.535-58.442 70.542-.702 5.601-1.685 8.919-3.28 11.076-1.804 2.439-2.246 4.26-2.124 8.747.085 3.117.184 8.414.221 11.771.049 4.464.585 6.742 1.995 8.484 1.331 1.644 1.773 3.338 1.427 5.472-.763 4.699 2.362 15.319 6.225 21.154C38.727 181.556 47.887 189 50.642 189c.642 0 2.292 1.912 3.665 4.25 2.657 4.521 6.651 7.971 10.712 9.251 1.365.43 4.621 2.701 7.237 5.048 4.6 4.127 11.841 7.451 16.231 7.451 1.172 0 3.004.661 4.072 1.468 2.914 2.205 4.3 1.765 1.58-.501-1.298-1.082-3.129-1.967-4.068-1.967-5.001 0-12.409-3.359-16.854-7.642-2.594-2.499-6.45-5.244-8.569-6.1-3.594-1.452-9.592-8.05-9.689-10.658-.023-.605-2.204-2.113-4.848-3.351-10.871-5.092-17.366-15.367-17.77-28.111-.163-5.117-.727-7.907-1.851-9.149-1.155-1.276-1.567-3.46-1.442-7.638.096-3.218-.15-7.69-.546-9.938-.712-4.032 1.35-10.413 3.363-10.413.448 0 1.346-4.323 1.995-9.606 3.994-32.497 27.88-60.995 58.615-69.93 3.286-.955 7.246-2.677 8.8-3.825 3.169-2.344 4.52-2.381 23.536-.658 19.582 1.774 35.32 6.35 49.336 14.345 7.577 4.322 7.762 4.369 20 5.038 54.412 2.975 73.307 23.225 41.575 44.559-5.122 3.443-26.49 14.053-28.334 14.068-1.18.01-4.516 10.804-4.638 15.009-.04 1.375.442 7.378 1.072 13.34 1.251 11.846.4 24.673-2.324 35.052-.851 3.241-1.34 6.099-1.088 6.351.567.567 2.333-5.863 3.552-12.939 1.874-10.873 2.158-19.608.969-29.81-1.476-12.661-1.492-12.234.68-18.662l1.747-5.169 10.354-4.736c30.626-14.011 42.014-29.226 31.599-42.216-7.906-9.861-23.885-15.122-52.669-17.341-14.088-1.087-15.144-1.318-20.367-4.464-13.6-8.189-28.452-12.636-49.775-14.903-7.7-.819-15.575-1.708-17.5-1.975-1.925-.267-4.616-.021-5.979.546m13.918 13.291c-20.162 5.437-28.568 33.196-14.652 48.385 1.134 1.238 2.465 2.25 2.957 2.25 1.524 0 9.569-5.9 20.094-14.735 17.712-14.87 29.437-22.007 39.149-23.828 5.069-.951 4.463-1.724-4.595-5.865-14.445-6.603-32.05-9.147-42.953-6.207M74.5 57.887c-13.708 7.865-29.082 30.188-31.93 46.363-.746 4.235-.235 4.473 4.962 2.301 3.006-1.256 3.468-1.908 3.468-4.895 0-13.274 12.785-34.725 26.5-44.463 4.214-2.991 2.891-2.685-3 .694M175.5 67c-.34.55.084 1 .941 1S178 67.55 178 67s-.423-1-.941-1-1.219.45-1.559 1m5 0c-.34.55.084 1 .941 1S183 67.55 183 67s-.423-1-.941-1-1.219.45-1.559 1m6.313-.317c.721.289 1.584.253 1.916-.079.332-.332-.258-.568-1.312-.525-1.165.048-1.402.285-.604.604M192 67c0 .55.702 1 1.559 1s1.281-.45.941-1c-.34-.55-1.041-1-1.559-1s-.941.45-.941 1m5 0c0 .55.675 1 1.5 1s1.5-.45 1.5-1-.675-1-1.5-1-1.5.45-1.5 1m-28 1c0 1.253 1.061 1.253 3 0 1.213-.784 1.069-.972-.75-.985-1.238-.008-2.25.435-2.25.985m33.75-.338c.688.278 1.813.278 2.5 0 .688-.277.125-.504-1.25-.504s-1.937.227-1.25.504M208 68c0 .55.702 1 1.559 1s1.281-.45.941-1c-.34-.55-1.041-1-1.559-1s-.941.45-.941 1m-44 1c0 .55.423 1 .941 1s1.219-.45 1.559-1c.34-.55-.084-1-.941-1S164 68.45 164 69m49 0c0 .55.675 1 1.5 1s1.5-.45 1.5-1-.675-1-1.5-1-1.5.45-1.5 1m-54 1c-1.207.78-1.049.972.809.985 1.288.008 2.036-.427 1.691-.985-.743-1.202-.639-1.202-2.5 0m59.5 0c.34.55 1.041 1 1.559 1s.941-.45.941-1-.702-1-1.559-1-1.281.45-.941 1m5 1c.34.55 1.293 1 2.118 1s1.222-.45.882-1c-.34-.55-1.293-1-2.118-1s-1.222.45-.882 1M154 72.969c0 .532.675.709 1.5.393.825-.317 1.5-.753 1.5-.969 0-.216-.675-.393-1.5-.393s-1.5.436-1.5.969M229 73c1.939 1.253 3 1.253 3 0 0-.55-1.012-.993-2.25-.985-1.819.013-1.963.201-.75.985m-79.857 1.89c-.824.523-.967 1.101-.363 1.474.546.338 1.549-.056 2.229-.875 1.35-1.626.291-1.965-1.866-.599M234 75c0 .55.675 1 1.5 1s1.5-.45 1.5-1-.675-1-1.5-1-1.5.45-1.5 1m-89.541 3.067c-.363.586-.419 1.306-.126 1.6.717.716 2.667-.546 2.667-1.726 0-1.278-1.726-1.193-2.541.126M238 77.882c0 .55.45 1.278 1 1.618.55.34 1 .168 1-.382s-.45-1.278-1-1.618c-.55-.34-1-.168-1 .382M140.5 82c-.34.55-.168 1 .382 1s1.278-.45 1.618-1c.34-.55.168-1-.382-1s-1.278.45-1.618 1m98.106 1.584c-.373.973-.15 1.431.581 1.187 1.495-.498 2.318-2.771 1.003-2.771-.537 0-1.249.713-1.584 1.584M136 86.059c0 .582.45.781 1 .441s1-.816 1-1.059-.45-.441-1-.441-1 .477-1 1.059M235.5 88c-.34.55-.168 1 .382 1s1.278-.45 1.618-1c.34-.55.168-1-.382-1s-1.278.45-1.618 1m-104 1c-.34.55.084 1 .941 1S134 89.55 134 89s-.423-1-.941-1-1.219.45-1.559 1m99.5 2c-1.293.835-1.266.971.191.985.93.008 1.969-.435 2.309-.985.782-1.266-.542-1.266-2.5 0m-103.5 2c-.34.55-.168 1 .382 1s1.278-.45 1.618-1c.34-.55.168-1-.382-1s-1.278.45-1.618 1m98.744.664c-.691.279-1.014.899-.718 1.378.648 1.048 3.474.114 3.474-1.149 0-.963-.775-1.027-2.756-.229M125.75 95.662c.688.278 1.813.278 2.5 0 .688-.277.125-.504-1.25-.504s-1.937.227-1.25.504M131 96c0 .55.675 1 1.5 1s1.5-.45 1.5-1-.675-1-1.5-1-1.5.45-1.5 1m5 0c0 .55.675 1 1.5 1s1.5-.45 1.5-1-.675-1-1.5-1-1.5.45-1.5 1m6 0c0 .55.675 1 1.5 1s1.5-.45 1.5-1-.675-1-1.5-1-1.5.45-1.5 1m6.813.683c.721.289 1.584.253 1.916-.079.332-.332-.258-.568-1.312-.525-1.165.048-1.402.285-.604.604m5 0c.721.289 1.584.253 1.916-.079.332-.332-.258-.568-1.312-.525-1.165.048-1.402.285-.604.604m4.187-.29c0 .216.675.652 1.5.969.825.316 1.5.139 1.5-.393 0-.533-.675-.969-1.5-.969s-1.5.177-1.5.393m63.5.607c-.34.55-.168 1 .382 1s1.278-.45 1.618-1c.34-.55.168-1-.382-1s-1.278.45-1.618 1m-57.75.662c.688.278 1.813.278 2.5 0 .688-.277.125-.504-1.25-.504s-1.937.227-1.25.504m5.75.338c-.34.55.11 1 1 1s1.34-.45 1-1c-.34-.55-.79-1-1-1-.21 0-.66.45-1 1m5.5 1c0 .55.702 1 1.559 1s1.281-.45.941-1c-.34-.55-1.041-1-1.559-1s-.941.45-.941 1m5 1c1.939 1.253 3 1.253 3 0 0-.55-1.012-.993-2.25-.985-1.819.013-1.963.201-.75.985m36 0c0 .55.423 1 .941 1s1.219-.45 1.559-1c.34-.55-.084-1-.941-1s-1.559.45-1.559 1m-31 .893c0 1.25 2.823 2.203 3.462 1.168.29-.468-.183-1.124-1.05-1.456-2.096-.805-2.412-.767-2.412.288M211.5 102c-.34.55-.168 1 .382 1s1.278-.45 1.618-1c.34-.55.168-1-.382-1s-1.278.45-1.618 1m-21.5.393c0 .216.675.652 1.5.969.825.316 1.5.139 1.5-.393 0-.533-.675-.969-1.5-.969s-1.5.177-1.5.393M206 104c-1.293.835-1.266.971.191.985.93.008 1.969-.435 2.309-.985.782-1.266-.542-1.266-2.5 0m-9.187.683c.721.289 1.584.253 1.916-.079.332-.332-.258-.568-1.312-.525-1.165.048-1.402.285-.604.604m-89.554 1.022c-3.251.627-5.259 4.108-5.259 9.118 0 3.652-.568 4.945-3.432 7.809-2.942 2.942-3.353 3.919-2.878 6.846.709 4.37-.096 7.498-2.824 10.966-1.198 1.522-2.285 4.124-2.415 5.78-.486 6.176-6.873 11.822-14.165 12.523-5.439.522-6.341-.121-8.179-5.832-5.222-16.23-28.551-10.746-26.719 6.281 1.694 15.75 16.208 25.051 29.243 18.74 5.326-2.578 7.547-1.623 9.22 3.962 1.752 5.846 10.44 18.321 16.448 23.618 5.361 4.726 19.282 12.182 23.701 12.694 1.375.16 2.779.671 3.119 1.137.842 1.152 18.843 1.464 26.226.454 19.312-2.641 37.356-19.913 43.676-41.808 6.106-21.152 1.253-63.749-7.54-66.185-16.447-4.556-66.14-8.433-78.222-6.103M200.5 106c-.34.55.084 1 .941 1s1.559-.45 1.559-1-.423-1-.941-1-1.219.45-1.559 1m-156.25 6.491c-2.13.926-3.25 2.109-3.25 3.436 0 2.3 1.675 2.165 12.5-1.013 5.617-1.649 5.764-1.766 2.309-1.838-2.03-.042-3.969-.526-4.309-1.076-.844-1.366-3.372-1.195-7.25.491m78.25 1.379c-10.257 2.677-9.524 5.13 1.532 5.13 10.644 0 15.159 1.534 17.427 5.921 1.801 3.482 4.934 4.082 6.457 1.236 1.406-2.628-1.593-8.114-5.747-10.512-3.662-2.115-14.59-3.101-19.669-1.775m40.412 6.218c-5.221 5.221-6.36 14.616-2.662 21.95l2.25 4.462 6.233-.344c8.133-.45 12.267 2.935 12.267 10.045 0 8.595-5.015 11.799-18.468 11.799-4.887 0-8.532.417-8.532.977 0 5.147 19.257 6.43 27.12 1.807 10.004-5.881 10.958-20.492 1.839-28.165-1.712-1.44-3.761-2.619-4.555-2.619-1.018 0-1.267-.697-.847-2.372.497-1.98.127-2.497-2.231-3.124l-2.826-.751 2.75-.96c2.992-1.044 3.295-1.905 1.715-4.859-2.619-4.894-8.465-.287-8.465 6.671 0 3.055-.418 4.395-1.37 4.395-1.918 0-1.069-11.793.94-13.064 2.267-1.435 12.646-1.082 16.584.564 5.881 2.457 7.13 1.931 3.783-1.592-6.636-6.984-20.704-9.641-25.525-4.82m-29.339 7.482c-3.828 3.827-2.978 13.66 1.232 14.257 4.262.604 8.116-5.512 4.13-6.554-2.248-.588-2.615-2.273-.494-2.273 2.362 0 2.837-1.926 1.122-4.544-1.857-2.835-3.76-3.116-5.99-.886m-79.1 23.64c-.274.713.37 3.761 1.431 6.774 2.755 7.821 1.174 9.415-3.865 3.898-3.215-3.521-5.039-3.124-5.039 1.095 0 5.609 3.611 9.023 9.544 9.023 1.802 0 2.81.636 3.166 2 1.673 6.398 5.753-.874 4.757-8.479-1.056-8.065-8.371-18.54-9.994-14.311m62.069 10.721c-.352.571-1.308 3.287-2.125 6.036-1.491 5.022-3.574 7.033-7.286 7.033-3.6 0-7.131 1.837-6.532 3.398.636 1.656 5.526 3.602 9.05 3.602 1.765 0 2.356.561 2.373 2.25.069 7.096 8.263 18.001 17.144 22.816 8.92 4.836 24.91 5.111 34.022.584 13.985-6.947 26.92-29.39 17.56-30.467-1.596-.183-3.941.53-5.582 1.699-13.183 9.387-37.191 9.402-50.127.031-4.009-2.904-4.088-3.075-3.532-7.691.753-6.251-2.77-12.842-4.965-9.291m120.958 21.56c-.55.184-2.238.607-3.75.941l-2.75.606v12.359c0 14.539.176 14.828 9.391 15.415 12.502.796 20.043-6.799 13.12-13.214-2.476-2.295-2.479-2.317-.5-4.108 6.651-6.019-5.427-15.362-15.511-11.999m41.547.739c-2.58 1.348-8.731 17.896-9.289 24.988-.239 3.035-.013 3.306 2.992 3.595 2.354.227 3.25-.097 3.25-1.178 0-5.725 9.976-6.41 12.885-.885 1.272 2.415 7.115 3.296 7.115 1.073 0-2.415-6.287-24.832-7.372-26.285-1.591-2.131-6.677-2.825-9.581-1.308m37.596-.202c-10.369 3.107-8.814 13.743 2.504 17.134 5.158 1.545 6.413 3.135 4.213 5.335-1.696 1.696-2.68 1.685-10.697-.123-2.55-.576-2.803-.402-2.5 1.718.49 3.426 4.37 5.051 11.073 4.637 13.918-.86 14.878-12.745 1.402-17.337-7.047-2.401-6.086-4.892 1.887-4.892 5.451 0 6.003-.199 6.297-2.271.557-3.923-7.319-6.257-14.179-4.201m32.107.032c-2.226 1.322-2.633 24.35-.482 27.291 2.154 2.946 19.112 1.991 19.552-1.101.303-2.135-.012-2.25-6.183-2.25-5.614 0-6.589-.272-7.134-1.991-.99-3.12.234-4.009 5.521-4.009 3.933 0 5.125-.409 6.01-2.064 1.723-3.22-.417-4.936-6.156-4.936-4.511 0-4.878-.184-4.878-2.452 0-2.31.363-2.47 6.25-2.75 6.212-.296 6.25-.316 6.25-3.298v-3l-8.5-.24c-4.675-.131-9.288.228-10.25.8m55.025.19c-1.303 1.013-1.671 3.808-1.941 14.75l-.334 13.5 3.111.303c3.575.348 4.357-2.019 4.378-13.253.013-6.793.98-6.47 3.453 1.153 2.774 8.554 8.109 8.177 11.085-.783 2.209-6.652 3.311-5.278 3.676 4.583.296 7.983.302 7.998 3.169 8.325 4.191.479 4.378-.205 3.516-12.805-1.022-14.934-1.253-15.725-4.828-16.51-4.691-1.03-6.551.704-8.509 7.935-2.209 8.162-2.85 8.167-5.554.042-2.663-8.003-6.805-10.675-11.222-7.24m54.686-.297c-2.234.905-9.975 23.114-9.299 26.677.64 3.369 5.464 2.994 7.307-.569 2.414-4.67 9.46-4.414 12.132.439 1.078 1.958 7.406 3.511 7.393 1.813-.006-.702-5.285-20.827-6.673-25.441-.936-3.108-6.623-4.636-10.86-2.919m36.539-.221c-4.622.85-5 1.857-5 13.325 0 13.286.829 15.943 4.975 15.943 2.918 0 3.025-.158 3.025-4.5 0-3.674.332-4.5 1.807-4.5 1.006 0 3.215 1.996 4.98 4.5 2.347 3.329 3.836 4.5 5.724 4.5 3.704 0 4.1-2.51 1.031-6.534l-2.68-3.513 2.569-3.053c7.808-9.28-1.906-18.838-16.431-16.168m35.303.518c-.55.729-.705 6.881-.373 14.75l.57 13.5 3.25.313 3.25.314v-5.064c0-6.301.755-6.308 6.597-.063 4.819 5.153 8.092 6.284 10.34 3.576.954-1.15.191-2.518-3.974-7.117l-5.157-5.694 4.597-4.667c4.722-4.794 5.49-6.805 3.397-8.898-2.279-2.279-4.702-1.18-9.4 4.262-5.444 6.305-6.4 6.243-6.4-.414 0-5.631-3.941-8.454-6.697-4.798m40.306.284c-2.082 2.082-2.362 24.054-.341 26.817 2.154 2.946 19.112 1.991 19.552-1.101.299-2.111-.041-2.251-5.5-2.265-6.636-.018-8.67-.916-8.16-3.605.255-1.344 1.351-1.957 3.848-2.15 7.095-.548 8.143-1.087 7.805-4.015-.291-2.523-.684-2.736-5.563-3.017-4.821-.278-5.25-.502-5.25-2.75 0-2.284.351-2.449 5.25-2.463 6.327-.019 8.034-.941 7.587-4.098-.322-2.279-.727-2.4-8.978-2.674-6.881-.229-8.969.04-10.25 1.321m33.554-.656c-2.848 1.805-.928 5.6 2.998 5.927l3.661.305.646 9.695c.896 13.431.662 12.695 4.046 12.695h2.986l.283-11.25.283-11.25h3.344c3.908 0 6.025-2.053 5.105-4.952-.602-1.897-1.438-2.047-11.332-2.033-5.876.009-11.285.397-12.02.863m64.299.142c-11.611 3.544-13 22.932-1.972 27.54 6.853 2.864 15.51 1.381 15.51-2.656 0-1.81-.455-1.964-4.25-1.438-8.063 1.115-13.042-4.209-10.833-11.583 1.464-4.888 4.053-6.284 10.29-5.545 3.852.456 5.013.252 5.479-.963 1.507-3.925-7.633-7.366-14.224-5.355m37.947-.086c-2.418 1.022-3.28 2.942-7.424 16.525-3.416 11.197-3.312 12.541.965 12.541 2.382 0 3.144-.525 3.642-2.509 1.17-4.664 10.012-4.839 12.205-.241 1.575 3.301 7.202 4.083 7.204 1 .002-2.753-6.068-23.964-7.349-25.68-1.434-1.921-6.461-2.811-9.243-1.636m36.091-.265c-4.178 1.141-4.5 2.161-4.5 14.262 0 12.89.886 15.503 5.056 14.914 2.012-.284 2.498-.99 2.748-3.99.293-3.515.471-3.669 5-4.348 9.411-1.411 13.445-7.476 10.001-15.035-2.02-4.434-11.876-7.559-18.305-5.803m-545.701 8.379c-1.447 3.274-2.418 5.952-2.159 5.952.674 0 5.643-11.05 5.177-11.516-.213-.213-1.571 2.291-3.018 5.564m-32.799.023c-3.575.986-10.1 1.858-14.5 1.938-7.791.141-7.898.176-4.08 1.327 8.718 2.631 3.891 5.464-6.573 3.858-7.808-1.199-8.365-.899-2.223 1.194 11.155 3.801 23.886 1.051 31.322-6.766 1.896-1.992 3.246-3.559 3-3.483-.245.077-3.371.946-6.946 1.932m75 .429c0 2.417.292 2.597 3.75 2.31 2.98-.246 3.75-.721 3.75-2.31s-.77-2.064-3.75-2.31c-3.458-.287-3.75-.107-3.75 2.31m259 1.5c0 3.714.2 4 2.8 4 4.673 0 7.553-5.883 3.618-7.393-4.558-1.749-6.418-.765-6.418 3.393m248-.107c0 4.259 1.252 5.308 4.772 4 4.845-1.801 3.45-7.893-1.807-7.893-2.779 0-2.965.244-2.965 3.893m-465.383 1.717c-1.623 4.763-1.15 6.359 1.883 6.359 2.987 0 3.744-1.699 2.496-5.6-1.869-5.844-2.603-5.971-4.379-.759m179.882-.248c-1.817 4.76-1.444 6.648 1.31 6.623 3.557-.033 4.188-1.281 2.883-5.702-1.734-5.871-2.258-5.986-4.193-.921m247.055.795c-1.777 4.44-1.143 5.794 2.727 5.828 2.486.021 3.105-2.284 1.733-6.444-1.516-4.591-2.427-4.465-4.46.616m-568.741-2.474c.721.289 1.584.253 1.916-.079.332-.332-.258-.568-1.312-.525-1.165.048-1.402.285-.604.604m52.698 7.94c-.945 1.443-1.224 2.318-.62 1.944 1.154-.713 3.483-4.567 2.759-4.567-.231 0-1.193 1.18-2.139 2.623m47.203-.003c-1.776 1.775-.664 5.355 1.86 5.988 3.785.95 7.637-1.106 7.244-3.868-.323-2.273-7.321-3.903-9.104-2.12m-51.309 5.63-1.905 2.25 2.25-1.905c2.114-1.79 2.705-2.595 1.905-2.595-.19 0-1.202 1.012-2.25 2.25m-8 8-1.905 2.25 2.25-1.905c2.114-1.79 2.705-2.595 1.905-2.595-.19 0-1.202 1.012-2.25 2.25" fill-rule="evenodd"/><path fill="#2a6380" stroke="#2a6380" d="M0 142v142h861V0H0v142M99.734 34.404c-2.071 1.406-7.246 3.716-11.5 5.132-30.393 10.119-53.362 38.23-57.453 70.313-.798 6.261-1.68 9.295-3.192 10.981-2.926 3.265-3.313 22.522-.576 28.67.979 2.2 2.007 6.786 2.284 10.191.957 11.781 8.638 23.607 18.703 28.798 2.855 1.473 5.198 3.636 6.409 5.919 2.096 3.949 6.7 7.886 10.591 9.055 1.375.414 4.3 2.454 6.5 4.536 4.916 4.65 9.011 6.77 15.428 7.987 3.227.612 6.763 2.331 10.249 4.982 22.741 17.293 62.806 14.444 85.178-6.057 18.416-16.874 27.921-50.008 22.658-78.977-1.084-5.964 1.355-16.675 4.116-18.073.754-.382 6.996-3.446 13.871-6.809 51.114-25.004 36.436-54.19-29-57.665-9.591-.509-12.089-.987-15.05-2.88-14.443-9.237-32.248-14.669-54.45-16.612-6.05-.53-13.25-1.207-16-1.506-4.244-.46-5.57-.156-8.766 2.015m6.266 1.32c-1.375.248-3.4 1.261-4.5 2.25-1.1.99-4.633 2.551-7.851 3.47C61.21 50.706 34 84.049 34 114.538c0 3.635-.502 5.633-1.655 6.59-3.904 3.237-5.026 10.88-2.138 14.558.583.742.531 1.934-.138 3.184-1.645 3.074-1.272 7.535.818 9.778 1.431 1.537 1.978 3.933 2.265 9.939.62 12.943 7.849 23.956 18.359 27.97 2.469.943 4.489 2.261 4.489 2.929 0 2.805 5.958 9.28 10.044 10.915 2.336.934 5.114 2.802 6.175 4.15 2.792 3.549 9.517 7.199 15.715 8.528 3.069.658 7.411 2.609 10.087 4.531 10.688 7.679 23.824 11.516 39.403 11.511 44.191-.016 73.294-40.87 65.27-91.621-1.21-7.649-1.217-9.408-.05-11.718.756-1.494 1.715-4.359 2.132-6.366.726-3.494 1.211-3.853 11.441-8.47 30.004-13.539 40.649-27.34 30.096-39.021-8.212-9.09-24.59-13.768-54.104-15.454-10.763-.615-11.581-.82-17.5-4.402C161.098 43.833 144.86 39.06 128 38.338c-6.325-.27-13.197-1.132-15.27-1.915-2.074-.783-3.874-1.362-4-1.287-.127.075-1.355.34-2.73.588m10.365 10.365c-20.238 5.865-28.3 33.648-14.107 48.609l3.033 3.198 4.605-3.147c2.532-1.731 11.129-8.496 19.104-15.033 14.828-12.156 27.769-19.748 36.25-21.267 5.32-.953 4.775-1.702-4.238-5.822-14.467-6.613-34.345-9.524-44.647-6.538M96 47.697c-25.454 9.157-38.272 20.101-48.474 41.389-3.416 7.127-6.36 17.414-5.29 18.483.306.306 6.16-.821 13.008-2.506 19.293-4.746 22.065-3.586 4.524 1.895-16.436 5.135-18.537 6.052-19.138 8.35-.848 3.243-.174 3.299 9.674.8 8.323-2.112 45.133-13.7 46.946-14.78.412-.245-.582-2.107-2.211-4.137-9.943-12.398-8.795-32.769 2.596-46.077 3.512-4.103 3.036-5.097-1.635-3.417m71.181 17.747c-12.342 2.342-17.966 5.741-38.965 23.556l-11.198 9.5 19.741.632c26.489.848 44.417 3.458 58.423 8.505l6.683 2.407 8.858-3.818C231.218 97.39 244 87.72 244 81.053c0-2.413-7.347-8.96-12.268-10.932-13.32-5.336-47.878-7.841-64.551-4.677M105.5 106.195c-2.813 1.595-3.467 2.832-3.485 6.587-.021 4.617-2.289 9.512-5.33 11.505-2.316 1.517-2.478 2.007-1.549 4.674 1.247 3.577-.21 8.891-3.174 11.573-1.142 1.034-1.964 3.07-1.966 4.871-.005 4.601-3.227 9.044-8.359 11.529-7.13 3.451-9.582 2.652-12.855-4.19-9.48-19.82-34.983-6.742-26.052 13.359 5.62 12.648 16.378 17.753 27.129 12.875 6.38-2.895 6.926-2.645 10.219 4.695 23.504 52.386 95.636 51.275 112.38-1.73 7.495-23.724 3.715-66.195-6.236-70.075-12.684-4.947-74.359-9.281-80.722-5.673m18.297 7.833c-4.784.806-9.283 3.153-8.173 4.263.337.336 3.398.352 6.802.034 9.059-.846 16.732 1.576 19.577 6.18 2.31 3.737 4.405 4.481 5.39 1.913 1.094-2.852.647-4.302-2.392-7.764-4.412-5.025-10.7-6.397-21.204-4.626m40.946 5.056c-5.211 3.035-7.463 15.966-3.991 22.916 1.702 3.409 1.905 3.501 7.748 3.538 8.846.056 13.5 3.835 13.5 10.962 0 8.09-5.789 11.865-18.25 11.902-5.8.018-8.75.406-8.75 1.152 0 4.008 18.881 4.878 25.5 1.175 10.988-6.147 10.812-23.479-.299-29.455-2.323-1.249-3.161-2.308-2.83-3.579.328-1.259-.336-2.127-2.2-2.873l-2.671-1.067 2.702-1.158c2.465-1.056 2.594-1.373 1.475-3.618-2.743-5.501-7.677-1.379-7.677 6.412 0 4.24-1.482 5.446-3.062 2.493-1.46-2.728-.598-9.653 1.459-11.709 2.116-2.117 12.882-2.008 18.007.183 4.741 2.027 5.233 1.721 2.606-1.618-4.361-5.544-17.835-8.819-23.267-5.656m-31.186 9.139C130.75 132.23 132.043 142 135.38 142c2.013 0 4.935-3.737 4.273-5.463-.325-.845-1.279-1.537-2.122-1.537-.842 0-1.531-.45-1.531-1s.689-1 1.531-1c2.107 0 2.85-2.42 1.511-4.922-1.443-2.695-3.535-2.64-5.485.145M55 152.378c0 .758.675 2.993 1.5 4.968 3.242 7.758.121 10.557-4.994 4.479-3.109-3.695-4.954-2.465-4.009 2.672.771 4.188 3.513 6.56 8.33 7.207 2.837.38 4.304 1.135 4.714 2.424.326 1.03.965 1.872 1.419 1.872 2.459 0 2.79-11.269.492-16.768-2.431-5.82-7.452-10.437-7.452-6.854m61.518 10.872c-.231.688-.918 3.197-1.528 5.576-1.176 4.593-4.918 7.174-10.399 7.174-6.227 0-3.239 4.553 3.719 5.666 2.124.339 3.998 1.116 4.165 1.726 7.585 27.645 38.689 36.501 59.577 16.962 8.224-7.692 13.226-18.224 10.456-22.012-1.216-1.663-1.828-1.51-9.653 2.409-17.779 8.904-35.897 8.082-49.435-2.244-2.931-2.236-3.143-2.784-2.678-6.908.277-2.464.216-5.632-.138-7.039-.664-2.649-3.349-3.509-4.086-1.31M233 184.292c-2.38 1.202-2.514 1.739-2.802 11.235-.523 17.292.938 19.21 13.921 18.271 10.301-.745 15.537-8.277 9.915-14.262-1.865-1.985-1.929-2.378-.567-3.508 1.731-1.437 2.027-6.236.554-8.989-2.018-3.771-15.502-5.534-21.021-2.747m44.783-.231c-2.724 1.589-10.433 26.451-8.808 28.409 2.309 2.782 6.986 1.941 8.175-1.47 1.511-4.336 9.022-4.506 11.053-.25.897 1.881 2.217 2.854 4.176 3.078 5.501.63 5.465-.168-1.005-22.577-.834-2.887-2.191-5.925-3.016-6.75-1.694-1.694-7.975-1.955-10.575-.44m36.546.397c-8.294 3.608-6.931 12.688 2.419 16.119 11.536 4.232 8.513 8.029-3.9 4.897-2.17-.548-2.779-.267-3.354 1.546-1.124 3.541 2.371 6.221 8.809 6.755 15.731 1.305 20.372-13.05 5.936-18.362-8.764-3.225-7.874-5.956 1.585-4.865l5.325.614-.325-2.808c-.573-4.962-9.304-7.024-16.495-3.896m33.086 1.032c-2.102 3.208-1.742 24.206.46 26.859 1.867 2.25 18.249 2.412 20.085.199 2.838-3.42.334-5.548-6.527-5.548-6.16 0-6.433-.104-6.433-2.45 0-2.281.396-2.471 5.75-2.75 5.656-.295 5.75-.349 5.75-3.3 0-2.951-.094-3.005-5.75-3.3-5.354-.279-5.75-.469-5.75-2.75 0-2.322.307-2.45 5.878-2.45 6.449 0 8.738-1.484 7.637-4.952-1.094-3.446-18.795-3.076-21.1.442m55.498-.885c-.961 1.158-1.343 5.406-1.372 15.25L401.5 213.5h7l.297-7.997c.37-9.988 1.341-11.08 3.567-4.016 1.649 5.231 1.908 5.513 5.065 5.513 3.961 0 4.961-1.05 6.663-7l1.288-4.5.886 8.488c.911 8.732 1.595 9.97 5.515 9.997 3.342.022 3.664-1.98 2.516-15.632-1.115-13.268-1.975-15.353-6.338-15.353-4.782 0-5.723.947-7.516 7.572-2.119 7.829-2.605 7.926-4.802.958-.949-3.009-2.413-6.159-3.254-7-2.007-2.007-7.784-1.962-9.474.075m54.743-.343c-1.707 1.249-9.656 23.249-9.656 26.725 0 4.163 7.4 4.174 8.85.013 1.556-4.464 8.812-4.46 11.353.006 1.727 3.034 6.871 4.301 8.271 2.036 1.104-1.787-6.401-26.421-8.62-28.292-2.424-2.044-7.723-2.297-10.198-.488m34.594-.231c-2.177.875-2.25 1.343-2.25 14.314 0 14.708.502 16.072 5.69 15.477 2.589-.297 2.834-.695 3.115-5.072.384-5.994 1.144-5.952 5.644.312 2.989 4.161 4.101 5.007 6.243 4.75 4.379-.524 5.092-3.095 1.988-7.165l-2.696-3.535 2.508-3.695c5.901-8.695-.168-16.504-12.71-16.354-2.905.035-6.294.471-7.532.968M529 197.378c0 15.752.447 17.045 5.69 16.444 2.589-.297 2.834-.695 3.115-5.072.376-5.867.385-5.867 5.885.25 4.543 5.053 7.679 6.231 10.11 3.8 2.099-2.099 1.321-4.108-3.474-8.976l-4.673-4.745 4.741-5.069c5.234-5.596 5.505-7.664 1.304-9.976-2.776-1.528-2.809-1.51-8.204 4.466l-5.416 6-.039-4.55c-.046-5.417-1.312-6.95-5.739-6.95H529v14.378m40.872-12.709c-1.698 2.065-1.467 25.909.271 28.004 1.617 1.948 18.183 1.844 19.817-.125 2.838-3.42.334-5.548-6.527-5.548-6.16 0-6.433-.104-6.433-2.45 0-2.281.396-2.471 5.75-2.75 5.656-.295 5.75-.349 5.75-3.3 0-2.955-.088-3.005-5.813-3.302-5.342-.277-5.787-.48-5.5-2.5.274-1.926 1.014-2.235 5.98-2.495 6.174-.324 8.388-1.878 7.348-5.155-.892-2.812-18.378-3.133-20.643-.379m33.168-.217c-2.158 2.599-.323 5.401 3.759 5.741l3.701.307.287 10.442c.311 11.301 1.009 13.058 5.193 13.058 3.015 0 4.02-4.521 4.02-18.086v-5.793l3.75-.311c3.424-.283 3.777-.593 4.063-3.56l.314-3.25h-11.941c-9.219 0-12.216.331-13.146 1.452m63.031.3c-9.699 4.945-10.844 20.012-2.012 26.479 6.314 4.624 19.518 2.832 18.752-2.544-.282-1.981-.801-2.155-5.518-1.849-4.493.292-5.557-.011-7.75-2.204-5.464-5.464-1.427-15.492 5.764-14.318 1.756.287 4.093.67 5.193.853 3.198.53 2.781-5.215-.5-6.875-3.552-1.797-9.918-1.588-13.929.458m38.776-.502c-3.119 2.54-10.414 26.362-8.703 28.423 2.164 2.608 6.855 1.628 8.006-1.673 1.511-4.336 9.023-4.506 11.052-.25 1.536 3.22 7.374 4.518 8.392 1.867.845-2.203-6.415-26.894-8.342-28.367-.899-.687-3.262-1.25-5.252-1.25-1.99 0-4.308.563-5.153 1.25m35.491-.251c-3.18 1.282-3.639 4.014-2.839 16.889.756 12.172 1.147 13.071 5.694 13.097 2.454.014 2.719-.36 3-4.226.207-2.856.797-4.304 1.807-4.434 10.622-1.36 14-3.953 14-10.749 0-5.01-2.145-8.321-6.599-10.182-3.687-1.54-11.701-1.751-15.063-.395m-574.165 7.039c-7.809 2.774-18.306 3.426-26.673 1.656-3.85-.814-7.14-1.351-7.311-1.193-.427.395 7.384 3.194 12.561 4.502 2.338.591 4.25 1.565 4.25 2.164 0 1.232-14.124.645-17.5-.728-1.748-.711-1.835-.61-.688.801 2.088 2.57 9.984 4.761 17.116 4.75 9.194-.013 15.768-3.241 22.996-11.29 2.822-3.143 2.4-3.202-4.751-.662m73.54-.417c-2.102 2.102-.651 4.5 2.537 4.192 2.479-.239 3.25-.788 3.25-2.313 0-2.032-4.253-3.413-5.787-1.879M499 194.108c0 3.979.086 4.087 2.74 3.421 4.246-1.066 5.283-3.363 2.689-5.958-3.095-3.094-5.429-2.003-5.429 2.537m247.667-3.441c-1.061 1.061-.772 6.15.39 6.868 2.154 1.331 5.943-.488 5.943-2.854 0-3.631-4.111-6.236-6.333-4.014m-285.486 4.244c-1.733 4.97-1.49 6.089 1.319 6.089 2.85 0 3.156-1.749 1.136-6.488l-1.274-2.988-1.181 3.387m-180.083 1.238c-1.55 4.447-1.423 4.851 1.527 4.851 2.407 0 2.573-.26 2-3.125-.344-1.719-.625-3.519-.625-4 0-2.093-1.898-.605-2.902 2.274m427 0c-1.542 4.424-1.419 4.851 1.402 4.851 2.618 0 3.053-1.336 1.87-5.75-.837-3.124-1.979-2.81-3.272.899M239 204c0 2.995.151 3.108 3.75 2.81 3.251-.269 3.75-.643 3.75-2.81s-.499-2.541-3.75-2.81c-3.599-.298-3.75-.185-3.75 2.81" fill-rule="evenodd"/><path fill="#0c0c0c" stroke="#0c0c0c" d="M0 142v142h861V0H0v142M104.5 31.955c-3.225.754-7.5 3.125-7.5 4.161 0 .348-1.369.908-3.042 1.242-31.226 6.246-60.95 40.158-63.647 72.617-.493 5.943-1.17 8.244-3.218 10.946-2.138 2.822-2.566 4.4-2.439 9 .085 3.069.185 8.315.222 11.659.052 4.616.58 6.73 2.196 8.784 1.425 1.812 1.932 3.486 1.534 5.069-2.431 9.685 6.777 26.38 18.064 32.75 2.982 1.683 6.057 4.322 6.873 5.899 2.028 3.924 6.277 7.827 10.457 9.606 1.925.82 5.075 2.981 7 4.803 4.62 4.372 10.301 7.282 15.842 8.113 2.88.431 6.158 1.944 9.082 4.189 24.849 19.083 65.881 15.524 89.137-7.732 17.481-17.482 23.325-39.312 21.03-78.561-.685-11.708 1.033-15.784 7.799-18.499 36.261-14.554 49.339-33.72 33.05-48.436-9.25-8.357-32.164-14.502-54.245-14.547-8.481-.017-9.048-.165-15.412-4.003-14.217-8.575-31.61-13.74-49.283-14.635-5.775-.293-11.625-.911-13-1.375-4.35-1.466-7.409-1.772-10.5-1.05m-.479 5.119c-1.364.567-3.164 1.63-4 2.362-.837.732-4.221 2.1-7.521 3.041-31.136 8.873-54.937 37.887-58.071 70.791-.484 5.079-1.242 7.761-2.547 9.01-2.395 2.291-3.278 5.914-2.435 9.985.694 3.351.761 5.319.378 11.187-.14 2.148.437 4.182 1.529 5.388 1.275 1.409 1.821 3.946 2.001 9.3.419 12.47 6.569 22.231 17.32 27.491 3.618 1.77 5.83 3.574 6.474 5.28 1.409 3.733 5.679 7.879 9.367 9.096 1.752.578 5.262 3.042 7.801 5.475 4.413 4.228 11.842 7.52 16.97 7.52 1.058 0 3.296 1.154 4.973 2.565 12.242 10.301 35.216 15.523 52.804 12.003 37.946-7.595 58.542-42.161 52.997-88.945-.934-7.882-.956-10.952-.088-12.572.631-1.179 1.462-3.99 1.847-6.245l.7-4.102 11.49-5.131c52.992-23.667 42.314-50.06-21.51-53.163-11.175-.543-13.501-.952-16.568-2.915-14.632-9.361-31.473-14.487-54.248-16.513-5.601-.498-11.759-1.138-13.684-1.422-1.925-.284-4.616-.053-5.979.514m14.713 7.948c-22.451 5.685-32.345 32.763-17.914 49.026l3.849 4.336 4.415-2.616c2.429-1.438 10.266-7.448 17.416-13.354 19-15.696 26.737-20.206 41.5-24.194l3.5-.946-8.716-4.169c-14.696-7.03-34.128-10.596-44.05-8.083M93 48.358C71.765 55.922 56.608 69.02 47.519 87.66c-3.426 7.027-7.342 19.85-6.362 20.831.25.249 6.685-1.116 14.3-3.034 17.819-4.488 19.378-2.917 1.95 1.964C43.137 111.417 40 112.998 40 116.189c0 2.335.363 2.839 1.75 2.431.962-.283 4.675-1.228 8.25-2.1 12.934-3.154 48-14.9 48-16.078 0-.659-.71-1.786-1.578-2.507-10.423-8.65-9.35-34.154 1.963-46.676 5.566-6.161 4.85-6.547-5.385-2.901m87 15.268c-22.21 1.721-27.918 4.369-50.391 23.374l-13.598 11.5 18.476.663c26.891.964 42.58 3.208 59.289 8.478 9.626 3.037 9.87 2.986 27.224-5.684 26.394-13.187 30.31-23.532 12-31.704-10.164-4.536-36.879-7.876-53-6.627m-76.25 43.331c-2.21 1.759-2.751 3.008-2.754 6.366-.004 4.411-2.893 10.316-5.544 11.334-1.2.46-1.397 1.527-.897 4.86.684 4.56-1.606 11.182-4.213 12.182-.798.306-1.342 2.061-1.342 4.331 0 5.2-3.774 9.552-9.809 11.312-6.069 1.769-7.863 1.181-9.254-3.033-6.192-18.762-32.429-13.41-29.515 6.021 2.331 15.544 17.235 24.638 30.51 18.616 5.128-2.327 5.63-2.032 8.592 5.054 13.97 33.424 54.437 48.741 85.561 32.386 26.009-13.667 37.848-47.407 29.961-85.386-3.378-16.267-4.562-18.327-11.665-20.282-12.109-3.332-26.851-4.87-51.881-5.41-24.614-.532-25.042-.506-27.75 1.649m16.572 8.369c-5.601 2.069-4.84 2.674 3.362 2.674 10.309 0 13.964 1.243 18.519 6.298 3.085 3.424 3.812 3.825 4.358 2.404 1.509-3.932-2.128-9.749-7.376-11.798-3.221-1.258-15.031-.993-18.863.422m45.733 3.941c-6.126 3.1-8.526 14.97-4.646 22.979l1.815 3.745 5.211-.612c10.629-1.25 17.085 6.653 13.144 16.087-2.091 5.004-6.403 6.854-17.579 7.543l-9.5.586 3.718 1.702c8.573 3.927 22.101 1.174 27.093-5.511 5.16-6.912 2.264-19.708-5.447-24.066-2.812-1.589-3.8-2.733-3.476-4.025.315-1.253-.362-2.127-2.217-2.859l-2.671-1.053 2.5-1.088c1.375-.598 2.673-1.211 2.885-1.36.212-.15-.414-1.494-1.392-2.987l-1.779-2.714-1.857 2.294c-1.243 1.536-1.857 3.909-1.857 7.183 0 4.24-.268 4.889-2.021 4.889-4.022 0-5.122-8.687-1.694-13.375 1.898-2.596 11.337-3.283 17.281-1.257 6.094 2.076 6.447 1.614 1.735-2.273-5.848-4.824-14.053-6.456-19.246-3.828m-31.653 8.842c-4.097 4.527-1.225 16.571 2.955 12.391 2.362-2.362 2.025-4.366-.857-5.089-1.375-.345-2.5-.98-2.5-1.411 0-.431 1.125-1.066 2.5-1.411 2.758-.692 3.375-3.618 1.152-5.463-1.031-.856-1.796-.624-3.25.983M55.247 152.25c3.131 8.481 3.902 12.04 2.762 12.745-1.913 1.182-4.982-.024-6.688-2.628-2.156-3.291-3.321-2.955-3.321.959 0 4.468 3.446 7.674 8.247 7.674 2.74 0 3.772.485 4.253 2 .963 3.033 2.335 2.395 2.687-1.25.546-5.663-1.025-12.907-3.664-16.894-2.387-3.608-5.301-5.384-4.276-2.606m60.85 14.75c-1.432 5.585-4.825 8.991-8.982 9.015-1.438.009-3.29.467-4.115 1.019-2.263 1.515 1.446 3.966 6.002 3.966 3.509 0 3.659.154 4.907 5.024 5.015 19.566 29.029 29.823 48.269 20.616 7.537-3.607 15.944-12.677 18.783-20.265 3.395-9.074 1.635-10.401-7.226-5.451-16.104 8.996-35.242 8.476-49.474-1.345-4.744-3.273-4.76-3.303-4.424-8.369.636-9.579-1.693-12.2-3.74-4.21m115.653 17.08c-1.529.891-1.75 2.713-1.75 14.435 0 15.154-.226 14.722 8.274 15.831 13.746 1.793 23.874-7.237 16.693-14.881-1.808-1.924-1.863-2.306-.5-3.437 2.698-2.24 1.916-7.528-1.544-10.439-3.337-2.808-17.241-3.799-21.173-1.509m44.487.17c-2.316 2.874-9.334 26.928-8.24 28.246 2.857 3.443 10.003 2.35 10.003-1.531 0-1.662.694-1.965 4.5-1.965 3.302 0 4.5.393 4.5 1.477 0 3.592 8.601 5.595 10.542 2.455.815-1.318-6.491-26.217-8.269-28.182-1.903-2.103-11.448-2.469-13.036-.5m36.651.25c-4.93 2.679-6.048 10.239-2.048 13.853.913.825 3.873 2.321 6.577 3.324 8.006 2.97 6.204 6.554-1.895 3.77-5.618-1.932-8.79.316-6.495 4.603 1.585 2.962 4.974 4.284 10.969 4.278 16.401-.015 18.815-15.951 3.035-20.04-6.335-1.642-5.082-3.683 1.819-2.962 6.005.628 6.133.59 6.786-2.012 1.399-5.572-11.336-8.843-18.748-4.814m34.312-.3c-.813.813-1.2 5.484-1.2 14.477 0 16.057.148 16.257 12 16.16 9.043-.074 11-.933 11-4.824 0-2.88-.081-2.921-6.24-3.215-5.006-.239-6.306-.644-6.573-2.048-.277-1.451.415-1.75 4.049-1.75 9.682 0 11.263-7.136 1.773-8-4.192-.382-5.57-.914-5.824-2.25-.282-1.491.464-1.75 5.042-1.75 6.058 0 7.773-1.148 7.773-5.2V183h-10.3c-6.678 0-10.722.422-11.5 1.2m55.027.05c-.56.688-1.344 7.428-1.742 14.979l-.724 13.73 2.841 1.08c5.581 2.122 7.392.11 7.439-8.268l.041-7.271 2.209 4.5c1.971 4.014 2.575 4.5 5.6 4.5 3.535 0 4.057-.521 6.51-6.5l1.436-3.5.097 7c.115 8.333.88 9.833 5.011 9.833 5.075 0 5.268-.745 3.989-15.433-1.328-15.268-1.624-15.9-7.434-15.9-4.795 0-5.732.818-7.446 6.5-2.14 7.097-2.214 7.153-3.559 2.724-2.271-7.475-3.958-9.224-8.896-9.224-2.395 0-4.812.563-5.372 1.25m53.893.105c-1.097 1.322-9.12 24.767-9.12 26.651 0 4.215 9.385 4.581 10.432.407.903-3.597 9.049-3.616 9.951-.024.357 1.424 1.585 2.637 3.039 3.002 3.06.768 7.94-1.005 7.308-2.655-.261-.68-1.924-6.411-3.696-12.736-4.317-15.405-4.742-16-11.435-16-3.285 0-5.789.524-6.479 1.355m34.63-.275c-3.137 1.827-2.579 27.331.644 29.443 4.344 2.846 7.606 1.074 7.606-4.131 0-5.447.984-5.525 4.408-.352 3.556 5.374 6.672 6.793 10.051 4.579 3.179-2.083 3.173-2.924-.055-7.156l-2.596-3.403 2.096-2.665c3.977-5.056 2.518-13.091-2.884-15.885-3.362-1.738-16.519-2.032-19.27-.43M528 197c0 12.667.19 14.19 2 16 4.03 4.03 9 1.814 9-4.013v-3.942l4.092 4.439c4.913 5.33 7.189 6.217 10.457 4.076 3.528-2.312 3.058-4.375-2.217-9.731l-4.669-4.74 4.169-4.522c5.774-6.265 5.417-11.555-.782-11.575-1.792-.006-3.802 1.407-6.762 4.75-4.171 4.713-4.212 4.731-4.25 1.942-.069-5.087-1.64-6.684-6.573-6.684H528v14m41.2-12.8c-.813.813-1.2 5.476-1.2 14.443 0 16.064.211 16.357 11.788 16.357 8.913 0 11.212-1.032 11.212-5.035V207h-6.5c-5.833 0-6.5-.205-6.5-2 0-1.691.667-2 4.309-2 9.824 0 11.171-7.292 1.441-7.8-4.932-.257-5.75-.577-5.75-2.25 0-1.688.712-1.95 5.3-1.95 5.986 0 7.7-1.158 7.7-5.2V183h-10.3c-6.678 0-10.722.422-11.5 1.2m33.201.197c-1.427 3.72-.002 6.095 3.849 6.413l3.75.311.015 10.189c.019 12.451 1.293 14.655 7.564 13.081 2.384-.599 2.421-.782 2.421-11.999V191h2.809c3.946 0 6.453-2.1 6.036-5.056-.343-2.429-.422-2.446-13.115-2.724-10.446-.229-12.872-.015-13.329 1.177m61.781.633c-6.836 4.168-9.146 16.446-4.322 22.97 6.643 8.982 26.011 8.59 23.734-.48-.605-2.411-.971-2.593-3.881-1.925-7.422 1.705-11.713-.854-11.713-6.983 0-5.933 2.338-7.79 9.353-7.429 6 .309 6.154.254 6.454-2.336.667-5.761-12.3-8.282-19.625-3.817m39.971-1.146c-1.672 1.06-9.138 22.601-9.147 26.391-.011 5.181 8.138 6.108 10.027 1.139 1.256-3.304 8.464-3.575 9.485-.357 1.625 5.12 11.257 4.332 10.051-.822-2.182-9.325-7.095-24.619-8.294-25.817-1.558-1.558-9.925-1.926-12.122-.534m34.597.144c-1.532.938-1.75 2.812-1.75 15.046v13.976l2.711 1.03c4.836 1.839 7.289.46 7.289-4.099 0-3.571.255-3.981 2.48-3.981 11.293 0 17.586-11.417 10.602-19.234-2.802-3.136-3.25-3.277-11.25-3.538-4.682-.153-9.099.198-10.082.8M167 190.235c-9.052 3.392-25.71 3.5-34.252.222-.962-.369-1.748-.241-1.748.284 0 1.213 6.089 3.875 12.25 5.355 2.613.628 4.75 1.538 4.75 2.023 0 1.577-6.687.98-17.5-1.561l-3-.705 2.785 2.556c9.675 8.878 29.071 6.523 39.505-4.797 5.957-6.463 5.836-6.61-2.79-3.377m73 2.206c0 .793.441 1.713.979 2.046 1.344.83 5.218-1.359 4.49-2.537-.946-1.531-5.469-1.125-5.469.491m259 1.493c0 2.259.46 3.062 1.75 3.051 4.939-.044 5.828-5.243.991-5.801-2.461-.285-2.741-.004-2.741 2.75m248-.063c0 3.383 1.04 4.435 3.464 3.504 2.548-.977 1.604-5.794-1.214-6.195-1.906-.27-2.25.141-2.25 2.691m-285.765 2.924c-.97 2.751-.913 3.391.344 3.874 2.287.877 2.819-.295 1.77-3.902l-.951-3.267-1.163 3.295m-179.63-.207c-1.026 2.674-.674 4.412.895 4.412.924 0 1.5-.938 1.5-2.441 0-2.919-1.544-4.19-2.395-1.971m426.955 1.03c-.752 2.997-.255 3.863 1.773 3.084.918-.352 1.245-1.457.927-3.123-.634-3.316-1.863-3.298-2.7.039m-468.376 6.632c.249 1.736.888 2.186 2.798 1.971 5.232-.589 5.137-4.221-.111-4.221-2.551 0-2.961.343-2.687 2.25" fill-rule="evenodd"/></svg>