<?xml version="1.0" standalone="no"?>
<!DOCTYPE svg PUBLIC "-//W3C//DTD SVG 20010904//EN"
 "http://www.w3.org/TR/2001/REC-SVG-20010904/DTD/svg10.dtd">
<svg version="1.0" xmlns="http://www.w3.org/2000/svg"
 width="300.000000pt" height="99.000000pt" viewBox="0 0 300.000000 99.000000"
 preserveAspectRatio="xMidYMid meet">
<metadata>
Created by potrace 1.10, written by Peter Selinger 2001-2011
</metadata>
<g transform="translate(0.000000,99.000000) scale(0.100000,-0.100000)"
fill="#000000" stroke="none">
<path d="M2971 500 c0 -304 3 -491 9 -495 7 -4 10 173 10 489 0 316 -4 496
-10 496 -6 0 -9 -178 -9 -490z"/>
<path d="M275 866 c-115 -56 -156 -108 -195 -243 -18 -65 -21 -95 -16 -143 11
-91 22 -114 89 -173 82 -70 108 -87 197 -126 65 -29 83 -33 135 -28 71 5 137
36 181 83 54 58 68 99 74 214 l5 105 46 25 c66 36 84 51 101 85 22 42 14 75
-27 111 -28 25 -50 33 -113 43 -42 7 -86 14 -97 16 -11 2 -49 15 -85 30 -46
20 -87 29 -145 32 -75 3 -84 2 -150 -31z m173 4 c45 -5 104 -19 130 -31 26
-12 86 -27 134 -35 48 -7 101 -20 117 -29 31 -16 61 -51 61 -71 0 -25 -54 -76
-111 -105 -33 -16 -59 -35 -59 -42 -3 -190 -5 -201 -36 -257 -44 -79 -103
-114 -200 -118 -68 -4 -78 -2 -156 36 -79 39 -191 123 -212 159 -21 38 -40
170 -28 187 5 6 14 36 21 67 22 102 98 190 189 220 20 6 41 15 47 20 11 11 2
11 103 -1z"/>
<path d="M295 831 c-65 -30 -128 -91 -151 -148 -29 -68 -49 -199 -33 -209 5
-3 9 -20 9 -39 0 -31 40 -95 59 -95 4 0 27 -18 51 -40 24 -22 55 -43 70 -47
14 -3 36 -14 50 -23 88 -62 224 -42 295 42 47 55 58 94 59 207 1 58 6 106 11
108 42 14 133 75 145 96 29 52 -30 92 -152 103 -44 4 -91 16 -118 29 -103 51
-208 57 -295 16z m36 -35 c-25 -39 -28 -104 -6 -132 20 -26 19 -31 -7 -38 -13
-3 -58 -17 -100 -30 -59 -19 -78 -21 -78 -11 0 7 21 19 50 26 28 7 50 16 50
20 0 5 -21 2 -47 -6 -27 -8 -49 -15 -50 -15 -4 0 16 59 30 86 20 39 73 87 122
112 55 29 60 27 36 -12z m212 18 c51 -17 54 -28 8 -37 -16 -3 -63 -34 -106
-68 l-78 -63 -18 23 c-33 40 -21 106 25 143 27 23 107 23 169 2z m261 -68 c68
-29 55 -65 -40 -112 -53 -26 -53 -26 -117 -10 -35 9 -103 17 -151 19 -47 1
-86 4 -86 7 1 13 133 103 162 111 47 12 190 3 232 -15z m-195 -137 c45 -9 51
-14 62 -47 19 -59 15 -170 -8 -222 -38 -86 -128 -139 -211 -124 -77 14 -149
69 -173 131 -8 21 -13 23 -44 17 -24 -4 -42 -1 -59 10 -45 29 -43 107 3 119
24 6 61 -18 61 -39 0 -20 50 -15 60 6 4 8 12 25 18 37 7 13 12 30 12 38 0 8 4
23 9 33 5 9 12 25 15 35 5 15 19 17 105 17 55 0 122 -5 150 -11z m-303 -44
c-12 -46 -26 -75 -36 -75 -6 0 -22 7 -36 16 -17 11 -37 15 -64 11 -31 -4 -40
-2 -40 9 0 8 6 16 13 18 6 2 39 13 72 24 85 28 99 28 91 -3z"/>
<path d="M423 593 c-37 -7 -26 -18 17 -18 27 0 44 -6 53 -19 8 -11 17 -15 20
-9 17 27 -41 56 -90 46z"/>
<path d="M559 556 c-19 -41 -4 -74 34 -78 26 -2 33 -8 35 -30 4 -32 -27 -53
-64 -44 -26 7 -34 -8 -9 -18 27 -10 76 6 92 30 18 27 12 49 -22 87 -14 15 -21
27 -15 27 6 0 8 5 4 11 -8 13 -21 1 -26 -26 -5 -19 -5 -19 -13 -2 -5 12 -2 24
9 35 13 14 21 14 46 5 34 -13 39 -7 13 13 -30 22 -72 17 -84 -10z"/>
<path d="M462 526 c2 -15 8 -26 13 -26 15 0 12 43 -3 48 -10 3 -13 -4 -10 -22z"/>
<path d="M196 433 c5 -23 4 -26 -7 -15 -20 18 -31 15 -20 -7 6 -10 20 -21 31
-24 16 -4 20 0 20 18 0 30 -10 55 -21 55 -5 0 -6 -12 -3 -27z"/>
<path d="M398 408 c-2 -15 -11 -24 -25 -26 -28 -4 -31 -22 -4 -22 11 0 23 -12
31 -30 20 -47 55 -70 110 -70 54 0 91 23 116 72 20 39 13 44 -30 24 -43 -20
-108 -21 -146 -1 -23 12 -30 22 -30 45 0 35 -17 41 -22 8z m185 -100 c-19 -21
-64 -31 -103 -23 -40 9 -38 22 3 19 17 -2 23 -1 12 2 -43 12 -31 19 35 19 64
0 68 -1 53 -17z"/>
<path d="M787 362 c-27 -29 -22 -98 8 -127 28 -29 48 -31 89 -10 18 10 33 12
40 6 14 -12 114 -13 121 -1 3 5 21 2 40 -6 31 -13 39 -13 65 1 28 14 33 14 52
0 30 -20 64 -19 86 3 21 21 22 113 1 138 -14 17 -62 18 -89 2 -16 -10 -24 -10
-40 0 -29 18 -64 15 -90 -8 l-23 -20 -22 20 c-28 26 -53 25 -82 -2 l-23 -21
-23 21 c-29 28 -87 29 -110 4z m503 -23 c0 -5 -11 -9 -25 -9 -14 0 -25 -4 -25
-10 0 -5 9 -10 21 -10 12 0 19 -5 16 -12 -2 -7 -11 -12 -21 -10 -9 2 -16 -2
-16 -8 0 -5 12 -10 26 -10 16 0 24 -5 22 -12 -3 -8 -21 -13 -44 -13 l-39 0 0
50 c0 49 0 50 35 56 38 6 50 3 50 -12z m-404 -20 c1 -14 4 -31 8 -37 11 -18
-24 -43 -58 -40 -30 3 -31 5 -34 56 l-3 53 43 -3 c39 -3 43 -6 44 -29z m137
-21 c9 -29 14 -54 12 -57 -3 -2 -16 1 -29 8 -19 10 -27 10 -44 0 -31 -20 -36
-6 -17 50 13 41 21 51 39 51 18 0 25 -10 39 -52z m127 37 c-3 -5 -13 -9 -22
-8 -25 4 -22 -10 5 -22 47 -21 15 -74 -37 -61 -35 9 -28 32 8 28 19 -3 26 0
22 7 -4 6 -13 11 -20 11 -8 0 -19 7 -26 15 -10 12 -10 18 0 31 15 16 79 16 70
-1z"/>
<path d="M1386 361 c-23 -25 -30 -92 -13 -116 13 -17 29 -20 153 -21 78 -1
144 2 151 7 7 7 13 6 18 -1 8 -13 102 -13 110 0 4 7 12 7 25 0 23 -12 90 -13
109 -1 10 6 22 5 35 -5 30 -21 64 -17 91 10 23 23 24 23 41 5 9 -10 25 -19 34
-19 23 0 50 32 50 59 0 12 5 31 10 42 18 33 -4 59 -51 59 -22 0 -49 -5 -59
-10 -13 -7 -21 -7 -25 0 -8 13 -82 13 -91 -1 -3 -6 -16 -8 -28 -4 -43 13 -92
14 -114 3 -18 -9 -28 -9 -42 0 -27 17 -76 15 -94 -3 -8 -8 -20 -15 -26 -15 -6
0 -18 7 -26 15 -21 21 -46 19 -77 -5 -26 -21 -26 -21 -45 -2 -26 26 -114 28
-136 3z m804 -22 c0 -5 -7 -9 -15 -9 -11 0 -15 -12 -15 -46 0 -38 -3 -45 -17
-42 -14 2 -18 14 -19 43 0 29 -5 41 -17 43 -32 6 -17 21 26 24 47 3 57 1 57
-13z m-745 -16 l7 -28 10 28 c12 35 48 38 48 3 0 -13 3 -38 6 -56 6 -28 4 -32
-12 -28 -11 2 -21 15 -25 33 -4 17 -7 22 -8 13 -1 -25 -26 -22 -40 5 -11 20
-11 19 -6 -11 3 -24 0 -34 -11 -39 -23 -9 -27 2 -19 56 5 40 11 51 25 51 11 0
21 -10 25 -27z m196 0 c28 -74 20 -105 -19 -67 -14 15 -17 15 -27 0 -20 -26
-38 -20 -32 12 11 56 26 82 47 82 13 0 24 -10 31 -27z m144 -15 c0 -20 3 -40
7 -44 4 -4 5 -11 2 -15 -10 -16 -31 -9 -42 14 l-11 22 0 -23 c-1 -17 -6 -23
-18 -20 -14 2 -19 15 -21 56 l-3 53 43 -3 c42 -3 43 -4 43 -40z m86 20 l0 -23
16 23 c17 24 43 30 43 8 0 -7 -7 -19 -15 -26 -14 -12 -13 -16 6 -36 20 -21 20
-24 5 -30 -10 -4 -23 2 -36 17 l-19 24 -1 -22 c0 -14 -6 -23 -15 -23 -12 0
-15 13 -15 55 0 42 3 55 15 55 9 0 15 -9 16 -22z m189 12 c0 -5 -11 -10 -25
-10 -14 0 -25 -4 -25 -10 0 -5 9 -10 20 -10 11 0 20 -4 20 -10 0 -5 -9 -10
-20 -10 -11 0 -20 -4 -20 -10 0 -5 11 -10 25 -10 16 0 25 -6 25 -15 0 -11 -11
-15 -40 -15 l-40 0 0 55 0 55 40 0 c22 0 40 -4 40 -10z"/>
<path d="M2285 353 c-41 -45 -30 -99 25 -128 26 -14 33 -14 58 -1 20 10 33 11
46 4 10 -5 29 -8 42 -5 14 2 27 0 30 -4 3 -5 17 -3 32 5 19 10 32 11 48 4 40
-19 114 40 114 89 0 55 -88 84 -125 43 l-18 -20 -22 20 c-27 25 -55 25 -87 0
-25 -19 -26 -19 -43 0 -26 29 -69 25 -100 -7z m95 -19 c0 -11 -6 -15 -20 -11
-23 6 -45 -17 -36 -39 4 -11 14 -15 32 -11 19 3 24 1 22 -12 -4 -23 -46 -26
-69 -5 -21 19 -25 64 -7 82 19 19 78 15 78 -4z m128 -29 c15 -58 15 -65 -3
-65 -8 0 -15 5 -15 10 0 6 -9 10 -20 10 -11 0 -20 -4 -20 -10 0 -5 -7 -10 -16
-10 -13 0 -15 7 -11 28 12 59 26 82 50 82 19 0 25 -8 35 -45z m142 24 c13 -23
1 -44 -31 -54 -10 -4 -19 -13 -19 -21 0 -9 -7 -14 -17 -12 -14 3 -18 14 -18
48 -1 59 0 60 40 60 24 0 38 -6 45 -21z"/>
</g>
</svg>
